<svg width="128" height="160" xmlns="http://www.w3.org/2000/svg">

 <g>
  <title>background</title>
  <rect fill="none" id="canvas_background" height="402" width="582" y="-1" x="-1"/>
 </g>
 <g>
  <title>Layer 1</title>
  <g stroke="null" id="svg_1">
   <rect stroke="null" id="svg_2" height="16.148051" width="16.726" y="22.358598" x="9.455"/>
   <rect stroke="null" id="svg_3" height="16.148051" width="16.726" y="46.597174" x="9.455"/>
   <rect stroke="null" id="svg_4" height="16.146551" width="16.726" y="70.837249" x="9.455"/>
   <rect stroke="null" id="svg_5" height="16.148051" width="16.726" y="22.358598" x="40.346"/>
   <rect stroke="null" id="svg_6" height="16.148051" width="16.726" y="46.597174" x="40.346"/>
   <rect stroke="null" id="svg_7" height="16.146551" width="16.726" y="70.837249" x="40.346"/>
   <rect stroke="null" id="svg_8" height="16.148051" width="16.727" y="22.358598" x="71.236"/>
   <rect stroke="null" id="svg_9" height="16.148051" width="16.727" y="22.358598" x="102.127"/>
   <rect stroke="null" id="svg_10" height="16.148051" width="16.727" y="46.597174" x="71.236"/>
   <path stroke="null" id="svg_11" d="m118.304,6.908007l-108.609,0c-5.346,0 -9.695,6.523117 -9.695,14.543145l0,119.680965c0,8.021528 4.349,14.543145 9.695,14.543145l108.608,0c5.348,0 9.696,-6.523117 9.696,-14.543145l0,-119.680965c0.001,-8.020029 -4.348,-14.543145 -9.695,-14.543145zm-53.092,7.271573l28.365,0l0,134.22411l-28.365,0l0,-134.22411zm-2.423,134.22411l-28.366,0l0,-134.22411l28.365,0l0,134.22411l0.001,0zm-57.941,-7.271573l0,-119.680965c0,-4.010764 2.174,-7.271573 4.848,-7.271573l22.304,0l0,134.22411l-22.305,0c-2.673,0 -4.847,-3.263808 -4.847,-7.271573zm118.304,0c0,4.009264 -2.176,7.273072 -4.849,7.273072l-22.302,0l0,-134.22561l22.303,0c2.673,0 4.849,3.260808 4.849,7.271573l0,119.680965l-0.001,0z"/>
  </g>
 </g>
</svg>