<svg width="128" height="160" xmlns="http://www.w3.org/2000/svg">

 <g>
  <title>background</title>
  <rect fill="none" id="canvas_background" height="402" width="582" y="-1" x="-1"/>
 </g>
 <g>
  <title>Layer 1</title>
  <g stroke="null" id="svg_1">
   <path stroke="null" id="svg_2" d="m128,129.486722l-12.7,-16.139177l0,9.683506l-11.6,0c-4.2,4.957033 -9.4,9.914066 -15.2,12.911341l26.8,0l0,9.683506l12.7,-16.139177z"/>
   <path stroke="null" id="svg_3" d="m110.5,88.447101c0,-26.283802 -18.5,-47.495291 -41.3,-47.495291c-12.9,0 -24.3,6.80151 -31.9,17.407255c0,0 0,0 0,0c-2.6,3.804234 -4.8,7.954308 -6.3,12.219662c-0.1,0.345839 -0.2,0.576399 -0.3,0.922239c-0.2,0.691679 -0.4,1.268078 -0.6,1.959757c-1.4,4.726473 -2.1,9.798786 -2.1,15.101658c0,5.879271 1,11.527983 2.7,16.830856l-7.7,3.804234l18.4,8.415428l7.2,-21.211489l-7.4,3.688955c-1.2,-3.688955 -1.8,-7.608469 -1.8,-11.527983c0,-18.905893 13.4,-34.23811 29.8,-34.23811c16.4,0 29.8,15.447498 29.8,34.35339c0,18.905893 -13.4,34.35339 -29.8,34.35339l-69.2,0l5.4,6.225111l-5.4,6.68623l69.2,0c22.7,0 41.3,-21.211489 41.3,-47.495291z"/>
   <path stroke="null" id="svg_4" d="m27.4,67.466172c0.3,0.23056 0.6,0.461119 0.8,0.691679c1.5,-4.034794 3.5,-7.839029 5.9,-11.412703c-0.3,-0.23056 -0.5,-0.461119 -0.8,-0.691679c-1.8,-1.959757 -3,-4.726473 -3,-7.839029c0,-5.879271 4.2,-10.721024 9.3,-10.721024c0.8,0 1.6,0.11528 2.3,0.345839l-3.6,8.300148l7.9,-3.112555l10.9,-4.265354l-0.3,-0.922239l-6.1,-20.75037l-3.7,8.645987c-2.4,-1.037518 -4.9,-1.613918 -7.4,-1.613918c-11.5,0 -20.8,10.721024 -20.8,23.978205c0.1,7.954308 3.5,14.986378 8.6,19.367012z"/>
  </g>
 </g>
</svg>